<?xml version="1.0" encoding="UTF-8" standalone="no"?>
<!-- Created with Inkscape (http://www.inkscape.org/) -->

<svg
   version="1.1"
   id="svg2"
   width="666.66669"
   height="666.66669"
   viewBox="0 0 666.66669 666.66669"
   sodipodi:docname="Logo.svg"
   inkscape:version="1.2.2 (732a01da63, 2022-12-09)"
   xmlns:inkscape="http://www.inkscape.org/namespaces/inkscape"
   xmlns:sodipodi="http://sodipodi.sourceforge.net/DTD/sodipodi-0.dtd"
   xmlns="http://www.w3.org/2000/svg"
   xmlns:svg="http://www.w3.org/2000/svg">
  <defs
     id="defs6">
    <clipPath
       clipPathUnits="userSpaceOnUse"
       id="clipPath22">
      <path
         d="m 3554.64,2680 c 0,-582.46 -472.18,-1054.64 -1054.64,-1054.64 -582.46,0 -1067.17,472.32 -1054.64,1054.64 12.24,569.15 472.18,1054.64 1054.64,1054.64 582.46,0 1054.64,-472.18 1054.64,-1054.64 z"
         id="path20" />
    </clipPath>
    <linearGradient
       x1="0"
       y1="0"
       x2="1"
       y2="0"
       gradientUnits="userSpaceOnUse"
       gradientTransform="matrix(0,-2109.29,-2109.29,0,2499.88,3734.64)"
       spreadMethod="pad"
       id="linearGradient28">
      <stop
         style="stop-opacity:1;stop-color:#27b6a6"
         offset="0"
         id="stop24" />
      <stop
         style="stop-opacity:1;stop-color:#0b585d"
         offset="1"
         id="stop26" />
    </linearGradient>
    <clipPath
       clipPathUnits="userSpaceOnUse"
       id="clipPath38">
      <path
         d="m 3983.09,2623.46 c 0.71,18.86 1.2,37.72 1.2,56.54 0,818.44 -665.85,1484.29 -1484.29,1484.29 -818.44,0 -1484.29,-665.85 -1484.29,-1484.29 0,-818.44 665.85,-1484.29 1484.29,-1484.29 44.18,0 80,35.82 80,80 0,44.18 -35.82,80 -80,80 -730.21,0 -1324.29,594.08 -1324.29,1324.29 0,730.21 594.08,1324.29 1324.29,1324.29 730.21,0 1324.29,-594.08 1324.29,-1324.29 0,-2.75 -0.1,-5.51 -0.12,-8.26 l -145.22,107.87 108.22,-661.94 398.58,539.45 z M 3705.9,1955.5 c -36.51,24.9 -86.3,15.51 -111.2,-21 -24.91,-36.39 -15.5,-86.2 20.99,-111.1 13.81,-9.49 29.51,-14 45,-14 25.61,0 50.71,12.2 66.2,35 24.81,36.5 15.4,86.21 -20.99,111.1 z M 2985,1447.3 c -41.1,-16.2 -61.3,-62.6 -45.1,-103.7 12.39,-31.5 42.6,-50.7 74.49,-50.7 9.71,0 19.6,1.8 29.31,5.61 41.09,16.19 61.3,62.59 45.1,103.69 -16.2,41.1 -62.71,61.31 -103.8,45.1 z m 453.8,185.3 c 27.6,-34.49 22,-84.8 -12.5,-112.39 -14.81,-11.81 -32.4,-17.61 -49.9,-17.61 -23.5,0 -46.8,10.3 -62.6,30.11 -27.5,34.49 -21.91,84.79 12.6,112.39 34.5,27.61 84.8,22 112.4,-12.5 z"
         id="path36" />
    </clipPath>
    <linearGradient
       x1="0"
       y1="0"
       x2="1"
       y2="0"
       gradientUnits="userSpaceOnUse"
       gradientTransform="matrix(0,-2968.57,-2968.57,0,2600.73,4164.29)"
       spreadMethod="pad"
       id="linearGradient44">
      <stop
         style="stop-opacity:1;stop-color:#27b6a6"
         offset="0"
         id="stop40" />
      <stop
         style="stop-opacity:1;stop-color:#0b585d"
         offset="1"
         id="stop42" />
    </linearGradient>
  </defs>
  <sodipodi:namedview
     id="namedview4"
     pagecolor="#ffffff"
     bordercolor="#999999"
     borderopacity="1"
     inkscape:showpageshadow="0"
     inkscape:pageopacity="0"
     inkscape:pagecheckerboard="0"
     inkscape:deskcolor="#d1d1d1"
     showgrid="false"
     inkscape:zoom="0.86337736"
     inkscape:cx="573.32984"
     inkscape:cy="291.29789"
     inkscape:window-width="1920"
     inkscape:window-height="1001"
     inkscape:window-x="-9"
     inkscape:window-y="-9"
     inkscape:window-maximized="1"
     inkscape:current-layer="g12">
    <inkscape:page
       x="0"
       y="0"
       id="page8"
       width="666.66669"
       height="666.66669" />
  </sodipodi:namedview>
  <g
     id="g10"
     inkscape:groupmode="layer"
     inkscape:label="Page 1"
     transform="matrix(1.3333333,0,0,-1.3333333,0,666.66667)">
    <g
       id="g12"
       transform="matrix(0.1,0,0,0.1,1.2285012,8.599509)">
      <g
         id="g16"
         transform="translate(-116.70762,153.56266)"
         inkscape:export-filename="..\..\..\..\Pythonapps\softgac\static\images\acrux\logo_sin_name.png"
         inkscape:export-xdpi="96"
         inkscape:export-ydpi="96"
         style="fill:#214478">
        <g
           id="g18"
           clip-path="url(#clipPath22)"
           style="fill:#214478">
          <path
             d="m 3554.64,2680 c 0,-582.46 -472.18,-1054.64 -1054.64,-1054.64 -582.46,0 -1067.17,472.32 -1054.64,1054.64 12.24,569.15 472.18,1054.64 1054.64,1054.64 582.46,0 1054.64,-472.18 1054.64,-1054.64"
             style="fill:#214478;fill-opacity:1;fill-rule:nonzero;stroke:none"
             id="path30" />
        </g>
      </g>
      <g
         id="g32"
         transform="translate(-116.70762,153.56266)"
         style="display:inline;fill:#2c5aa0">
        <g
           id="g34"
           clip-path="url(#clipPath38)"
           style="fill:#2c5aa0">
          <path
             d="m 3983.09,2623.46 c 0.71,18.86 1.2,37.72 1.2,56.54 0,818.44 -665.85,1484.29 -1484.29,1484.29 -818.44,0 -1484.29,-665.85 -1484.29,-1484.29 0,-818.44 665.85,-1484.29 1484.29,-1484.29 44.18,0 80,35.82 80,80 0,44.18 -35.82,80 -80,80 -730.21,0 -1324.29,594.08 -1324.29,1324.29 0,730.21 594.08,1324.29 1324.29,1324.29 730.21,0 1324.29,-594.08 1324.29,-1324.29 0,-2.75 -0.1,-5.51 -0.12,-8.26 l -145.22,107.87 108.22,-661.94 398.58,539.45 z M 3705.9,1955.5 c -36.51,24.9 -86.3,15.51 -111.2,-21 -24.91,-36.39 -15.5,-86.2 20.99,-111.1 13.81,-9.49 29.51,-14 45,-14 25.61,0 50.71,12.2 66.2,35 24.81,36.5 15.4,86.21 -20.99,111.1 z M 2985,1447.3 c -41.1,-16.2 -61.3,-62.6 -45.1,-103.7 12.39,-31.5 42.6,-50.7 74.49,-50.7 9.71,0 19.6,1.8 29.31,5.61 41.09,16.19 61.3,62.59 45.1,103.69 -16.2,41.1 -62.71,61.31 -103.8,45.1 z m 453.8,185.3 c 27.6,-34.49 22,-84.8 -12.5,-112.39 -14.81,-11.81 -32.4,-17.61 -49.9,-17.61 -23.5,0 -46.8,10.3 -62.6,30.11 -27.5,34.49 -21.91,84.79 12.6,112.39 34.5,27.61 84.8,22 112.4,-12.5"
             style="fill:#2c5aa0;fill-opacity:1;fill-rule:nonzero;stroke:none"
             id="path46" />
        </g>
      </g>
      <path
         d="m 1852.9024,3413.8126 230.41,-656.54 h -562.39 z m -478.15,-948.88 h 812.62 l 136.26,-386.5 128.95,-365.73 362.84,57.29 -169.1,443.2 -615.04,1611.89 h -309.68 l -645.89,-1201.45 c 25.35,-158.52 78.92,-307.73 155.41,-442.31 l 143.63,283.61"
         style="fill:#ffffff;fill-opacity:1;fill-rule:nonzero;stroke:none"
         id="path48" />
      <path
         d="m 2817.6224,3452.1326 -213.91,-370.43 h 148.89 v -409.57 c 0,-35.89 29.1,-65 65,-65 35.89,0 65,29.11 65,65 v 409.57 h 148.91 l -213.89,370.43"
         style="fill:#ffffff;fill-opacity:1;fill-rule:nonzero;stroke:none"
         id="path50" />
      <g
         id="g52"
         transform="matrix(10,0,0,10,104.42261,239.55775)"
         style="display:inline;fill:#214478">
        <text
           xml:space="preserve"
           transform="scale(1,-1)"
           style="font-style:italic;font-variant:normal;font-weight:800;font-size:37.8467px;font-family:NunitoSans;-inkscape-font-specification:NunitoSans-ExtraBoldItalic;writing-mode:lr-tb;display:inline;fill:#214478;fill-opacity:1;fill-rule:nonzero;stroke:none"
           id="text56"
           x="186.23582"
           y="-75.365356"><tspan
             sodipodi:role="line"
             id="tspan54"
             x="186.23582"
             y="-75.365356">Acrux </tspan></text>
      </g>
      <g
         id="g58"
         transform="matrix(10,0,0,10,-44.287474,214.98772)"
         style="fill:#214478">
        <text
           xml:space="preserve"
           transform="scale(1,-1)"
           style="font-variant:normal;font-weight:300;font-size:10px;font-family:NunitoSans;-inkscape-font-specification:NunitoSans-Light;writing-mode:lr-tb;display:none;fill:#214478;fill-opacity:1;fill-rule:nonzero;stroke:none"
           id="text62"
           x="131.77098"
           y="-61.55611"><tspan
             sodipodi:role="line"
             id="tspan60"
             x="131.77098"
             y="-61.55611"
             style="font-size:10px;fill:#214478">SISTEMA DE GESTIÓN ADMINISTRATIVA CONTABLE</tspan></text>
      </g>
    </g>
  </g>
</svg>
